<?xml version="1.0" standalone="no"?>
<!DOCTYPE svg PUBLIC "-//W3C//DTD SVG 20010904//EN"
 "http://www.w3.org/TR/2001/REC-SVG-20010904/DTD/svg10.dtd">
<svg version="1.0" xmlns="http://www.w3.org/2000/svg"
 width="700.000000pt" height="700.000000pt" viewBox="0 0 700.000000 700.000000"
 preserveAspectRatio="xMidYMid meet">
<metadata>
Created by potrace 1.14, written by Peter Selinger 2001-2017
</metadata>
<g transform="translate(0.000000,700.000000) scale(0.100000,-0.100000)"
fill="#000000" stroke="none">
<path d="M4695 6753 c17 -15 125 -110 240 -210 229 -198 237 -205 416 -373
126 -119 492 -483 659 -656 87 -90 119 -125 261 -279 25 -28 79 -88 119 -135
41 -47 84 -94 95 -106 11 -11 36 -41 57 -65 20 -24 57 -66 83 -94 l46 -50 -5
40 c-27 210 -128 461 -284 710 -42 66 -78 122 -81 125 -3 3 -33 41 -66 85 -33
44 -65 85 -71 90 -5 6 -35 39 -64 74 -320 378 -829 724 -1221 830 -69 19 -89
23 -179 37 l-35 5 30 -28z"/>
<path d="M1817 6269 c-101 -16 -171 -69 -292 -224 -34 -44 -84 -114 -110 -155
-51 -79 -155 -289 -155 -312 0 -8 -4 -18 -8 -23 -16 -18 -81 -249 -97 -340
-24 -142 -32 -269 -29 -460 3 -208 5 -234 24 -350 5 -33 12 -78 15 -100 8 -49
68 -288 93 -370 19 -61 86 -243 102 -280 5 -11 19 -42 30 -70 34 -78 146 -300
175 -346 33 -51 33 -58 6 -147 -28 -94 -29 -214 -1 -287 6 -17 -5 -41 -53
-118 -58 -90 -64 -96 -90 -91 -27 5 -279 16 -346 14 -89 -2 -198 -93 -255
-213 -82 -174 -93 -374 -30 -564 45 -135 143 -252 231 -276 l44 -11 -78 -13
c-229 -39 -411 -221 -439 -440 -4 -32 -7 -173 -8 -313 l-1 -255 -107 0 -108 0
0 -152 0 -153 418 0 c472 0 2259 0 2517 0 l170 0 -1 143 c-1 78 -2 147 -3 153
-1 6 -40 10 -111 9 -60 -1 -110 1 -111 4 -1 3 -3 130 -4 281 -2 151 -5 284 -8
295 -31 129 -69 203 -139 275 -92 95 -194 145 -316 157 l-64 6 7 36 c4 20 16
52 27 72 l20 35 81 -2 c63 -2 100 3 160 21 l78 24 57 -31 c370 -203 788 -354
1117 -404 17 -3 55 -9 85 -14 183 -30 532 -33 705 -5 17 2 44 7 60 9 341 51
700 218 942 439 19 18 41 35 48 39 7 5 25 28 39 52 117 200 33 564 -240 1041
-85 149 -76 133 -173 285 -109 167 -306 439 -411 566 -14 17 -38 48 -55 69
-16 21 -35 43 -40 49 -6 6 -30 36 -55 66 -25 30 -47 57 -50 60 -3 3 -30 34
-60 70 -30 35 -62 71 -70 80 -8 9 -55 61 -105 116 -49 54 -136 146 -192 204
l-101 104 18 26 c11 14 43 51 72 83 l53 59 45 -25 c188 -105 442 -39 561 146
68 105 89 213 64 332 -32 153 -140 270 -299 325 -79 27 -210 23 -286 -10 -103
-44 -178 -110 -228 -200 -73 -132 -73 -287 1 -415 l22 -39 -65 -56 c-36 -30
-73 -61 -82 -69 -16 -12 -26 -6 -89 55 -92 88 -93 89 -229 214 -63 58 -117
107 -120 110 -3 3 -50 43 -105 90 -55 47 -102 87 -105 90 -3 3 -54 45 -115 93
-60 49 -119 96 -130 105 -76 62 -328 242 -470 336 -545 361 -983 535 -1248
495z"/>
<path d="M4791 6097 c20 -18 58 -51 85 -74 90 -76 155 -134 323 -288 206 -189
430 -415 626 -630 82 -90 92 -102 152 -170 l35 -40 -6 51 c-30 243 -276 617
-556 846 -204 167 -450 293 -640 326 l-54 10 35 -31z"/>
</g>
</svg>
